<svg xmlns="http://www.w3.org/2000/svg" viewBox="0 0 635.53 487.68"><defs><style>.cls-1{opacity:0.4;}.cls-2{isolation:isolate;}.cls-3{fill:#fb923b;}.cls-4{fill:#fbb03b;}.cls-5{opacity:0.8;}.cls-6{fill:#fb953b;}.cls-7{opacity:0.95;}.cls-8{fill:#f7751e;}.cls-9{fill:#f7931e;}</style></defs><title>Asset 3</title><g id="Layer_2" data-name="Layer 2"><g id="Layer_2-2" data-name="Layer 2"><g class="cls-1"><g class="cls-2"><polygon class="cls-3" points="635.04 283.4 634.98 303.78 318.52 487.68 318.58 467.3 635.04 283.4"/><polygon class="cls-3" points="318.58 467.3 318.52 487.68 0 303.78 0.06 283.4 318.58 467.3"/><polygon class="cls-4" points="635.04 283.4 318.58 467.3 0.06 283.4 316.51 99.5 635.04 283.4"/></g></g><g class="cls-5"><g class="cls-2"><polygon class="cls-6" points="635.04 238.4 634.98 258.78 318.52 442.68 318.58 422.3 635.04 238.4"/><polygon class="cls-6" points="318.58 422.3 318.52 442.68 0 258.78 0.06 238.4 318.58 422.3"/><polygon class="cls-4" points="635.04 238.4 318.58 422.3 0.06 238.4 316.51 54.5 635.04 238.4"/></g></g><g class="cls-7"><g class="cls-2"><polygon class="cls-8" points="635.53 183.9 635.48 204.28 319.02 388.18 319.08 367.8 635.53 183.9"/><polygon class="cls-8" points="319.08 367.8 319.02 388.18 0.5 204.28 0.56 183.9 319.08 367.8"/><polygon class="cls-9" points="635.53 183.9 319.08 367.8 0.56 183.9 317.01 0 635.53 183.9"/></g></g></g></g></svg>